 http://shareimage.ro/images/o2b7c6oknlaea69uhulb.jpg

Harry Potter And The Deathly Hallows PART 1 2010 CAM XviD-LKRG 
http://www.imdb.com/title/tt0926084/

File Size:609mb

Video: ID : 0
Format : MPEG-4 Visual
Format profile : Simple@L3
Format settings, BVOP : No
Format settings, QPel : No
Format settings, GMC : No warppoints
Format settings, Matrix : Default (H.263)
Codec ID : XVID
Codec ID/Hint : XviD
Duration : 2h 13mn
Bit rate : 703 Kbps
Width : 720 pixels
Height : 304 pixels
Display aspect ratio : 2.35:1
Frame rate : 25.000 fps
Color space : YUV
Chroma subsampling : 4:2:0
Bit depth : 8 bits
Scan type : Progressive
Bits/(Pixel*Frame) : 0.092
Stream size : 481 MiB (79%)
Writing library : XviD 1.2.1 (UTC 2008-12-04)


Audio: ID : 1
Format : MPEG Audio
Format version : Version 1
Format profile : Layer 3
Codec ID : 55
Codec ID/Hint : MP3
Duration : 2h 13mn
Bit rate mode : Constant
Bit rate : 128 Kbps
Channel(s) : 2 channels
Sampling rate : 44.1 KHz
Video delay : 25ms
Stream size : 122 MiB (20%)
Alignment : Split accross interleaves
Interleave, duration : 500 ms (12.50 video frames)
Interleave, preload duration : 500 ms

Video:Spanish Cam TDX/Screener Toxic thanks

Audio/Own

Now when we got the tdx cam it was already muxed with the toxic screener couldn't do
anything about it and the spanish cam is not very good a all and regardless of what filters i use
i can only make it watchable so once again first 36 minutes great the rest watch on a 15 inch
monitor at best.

Audio is our own and its great we did not use the screener audio for the first 36 minutes would be
a pain in the ass to do 2 syncs so just sycned our audio to it once again not the best cam but it's here
if you want it

We will release a V2 with our own cam in a day or so if no better source comes up till then take it or move on (:


Duration:2:13

Release Date:2010

Language:English
 
http://shareimage.ro/images/qay6992kqr0szlo2o1z.jpg
